<?xml version="1.0" encoding="UTF-8"?>
<svg width="440px" height="400px" viewBox="0 0 494 470" version="1.1" xmlns="http://www.w3.org/2000/svg" xmlns:xlink="http://www.w3.org/1999/xlink">
    <title>编组 3</title>
    <defs>
        <polygon id="path-1" points="18.6119712 5.21118164 470.487608 5.21118164 493.385742 31.2896819 493.385742 450.547776 477.42042 468.211182 18.6119712 468.211182 0.385742188 450.547776 0.385742188 31.2896819"></polygon>
        <filter x="-2.1%" y="-2.3%" width="104.3%" height="104.5%" filterUnits="objectBoundingBox" id="filter-2">
            <feGaussianBlur stdDeviation="10" in="SourceAlpha" result="shadowBlurInner1"></feGaussianBlur>
            <feOffset dx="0" dy="1" in="shadowBlurInner1" result="shadowOffsetInner1"></feOffset>
            <feComposite in="shadowOffsetInner1" in2="SourceAlpha" operator="arithmetic" k2="-1" k3="1" result="shadowInnerInner1"></feComposite>
            <feColorMatrix values="0 0 0 0 0.00392156863   0 0 0 0 0.439215686   0 0 0 0 0.776470588  0 0 0 0.259859525 0" type="matrix" in="shadowInnerInner1"></feColorMatrix>
        </filter>
    </defs>
    <g id="页面-1" stroke="none" stroke-width="1" fill="none" fill-rule="evenodd">
        <g id="登陆页" transform="translate(-713.000000, -306.000000)">
            <g id="编组-10" transform="translate(713.114258, 192.894409)">
                <g id="编组-3" transform="translate(0.000000, 113.788818)">
                    <g id="矩形">
                        <use fill-opacity="0.8" fill="#031E42" fill-rule="evenodd" xlink:href="#path-1"></use>
                        <use fill="black" fill-opacity="1" filter="url(#filter-2)" xlink:href="#path-1"></use>
                    </g>
                    <g id="编组-2" fill="#65E1FF">
                        <path d="M477.078125,0 L486.956055,9.35693359 L466.128906,9.35693359 L463.078125,6.45849609 L251.842285,6.45849609 L256.378906,0 L477.078125,0 Z M237.126953,0 L243.007324,6.40917969 L28.703125,4.45361328 L27.0712891,8.36474609 L7.81542969,8.36474609 L15.4545898,0 L237.126953,0 Z M251.842285,0 L246.345703,6.45849609 L241.055664,0 L251.842285,0 Z M473.891113,11.15625 L485.730469,25.190918 L485.730469,11.15625 L473.891113,11.15625 Z M19.6547852,11.15625 L7.81542969,25.190918 L7.81542969,11.15625 L19.6547852,11.15625 Z M486.956055,12.8862305 L486.956055,83.6522599 L493.456055,88.3862305 L493.456055,19.3070864 L486.956055,12.8862305 Z M6.5,12.8862305 L6.5,83.6522599 L0,88.3862305 L0,19.3070864 L6.5,12.8862305 Z M490.505371,89.6474609 L493.456055,89.6474609 L493.456055,121.644531 L490.505371,119.363846 L490.505371,89.6474609 Z M2.95068359,89.6474609 L0,89.6474609 L0,121.644531 L2.95068359,119.363846 L2.95068359,89.6474609 Z M490.505371,122.523926 L490.505371,127.396484 L493.456055,129.939453 L493.456055,124.369141 L490.505371,122.523926 Z M2.95068359,122.523926 L2.95068359,127.396484 L0,129.939453 L0,124.369141 L2.95068359,122.523926 Z M490.505371,129.939453 L490.505371,163.465332 L493.456055,166.008301 L493.456055,131.784668 L490.505371,129.939453 Z M2.95068359,129.939453 L2.95068359,163.465332 L8.8817842e-16,166.008301 L8.8817842e-16,131.784668 L2.95068359,129.939453 Z M490.505371,166.887695 L490.505371,200.413574 L493.456055,202.956543 L493.456055,168.73291 L490.505371,166.887695 Z M2.95068359,166.887695 L2.95068359,200.413574 L8.8817842e-16,202.956543 L8.8817842e-16,168.73291 L2.95068359,166.887695 Z M491.980713,207.922363 L493.456055,207.922363 L493.456055,218.922363 L491.980713,218.922363 L491.980713,207.922363 Z M1.4753418,207.922363 L0,207.922363 L0,218.922363 L1.4753418,218.922363 L1.4753418,207.922363 Z M491.980713,397.422363 L493.771484,397.422363 L493.771484,434.922363 L491.980713,434.922363 L491.980713,397.422363 Z M1.79077148,397.422363 L0,397.422363 L0,434.922363 L1.79077148,434.922363 L1.79077148,397.422363 Z M491.980713,223.102051 L493.456055,223.102051 L493.456055,234.102051 L491.980713,234.102051 L491.980713,223.102051 Z M1.4753418,223.102051 L0,223.102051 L0,234.102051 L1.4753418,234.102051 L1.4753418,223.102051 Z M493.771484,465.922363 L493.771484,468.422363 L478.771484,468.422363 L478.771484,465.922363 L493.771484,465.922363 Z M489.182129,440.223145 L489.182129,445.733887 L468.263184,466.60791 L468.263184,460.938965 L489.182129,440.223145 Z M493.771484,449.648926 L493.771484,462.422363 L481.245117,462.422363 L493.771484,449.648926 Z M493.771484,436.602051 L493.771484,447.602051 L491.980713,447.602051 L491.980713,436.602051 L493.771484,436.602051 Z M3.32617188,440.723145 L23.8261719,460.351725 L23.8261719,465.723145 L3.32617188,445.944664 L3.32617188,440.723145 Z M8.8817842e-16,451.306152 L12.5263672,464.07959 L8.8817842e-16,464.07959 L8.8817842e-16,451.306152 Z M1.79077148,436.602051 L1.79077148,447.602051 L0,447.602051 L0,436.602051 L1.79077148,436.602051 Z M491.980713,238.281738 L493.771484,238.281738 L493.771484,395.589844 L491.980713,395.589844 L491.980713,238.281738 Z M1.79077148,238.281738 L0,238.281738 L0,395.589844 L1.79077148,395.589844 L1.79077148,238.281738 Z M28.5,465.922363 L464,465.922363 L464,468.422363 L28.5,468.422363 L28.5,465.922363 Z M0,465.922363 L15,465.922363 L15,468.422363 L0,468.422363 L0,465.922363 Z" id="形状结合"></path>
                    </g>
                    <polyline id="路径-27" stroke="#65F4FF" points="24.0966797 46.6293945 33.5166016 37.2094727 135.011694 37.2094727 145.952148 27.2407227 373.485352 27.2407227 378.081055 22.4379883 433.920898 22.4379883"></polyline>
                    <polyline id="路径-27备份" stroke="#65F4FF" transform="translate(229.008789, 439.533691) scale(1, -1) translate(-229.008789, -439.533691) " points="24.0966797 451.629395 33.5166016 442.209473 135.011694 442.209473 145.952148 432.240723 373.485352 432.240723 378.081055 427.437988 433.920898 427.437988"></polyline>
                    <line x1="276.665039" y1="37.402832" x2="469.674805" y2="37.402832" id="路径-28" stroke="#65F4FF"></line>
                    <line x1="276.665039" y1="434.402832" x2="469.674805" y2="434.402832" id="路径-28备份" stroke="#65F4FF" transform="translate(373.169922, 434.402832) scale(1, -1) translate(-373.169922, -434.402832) "></line>
                </g>
            </g>
        </g>
    </g>
</svg>