<?xml version="1.0" encoding="UTF-8"?>
<svg width="126px" height="62px" viewBox="0 0 126 62" version="1.1" xmlns="http://www.w3.org/2000/svg" xmlns:xlink="http://www.w3.org/1999/xlink">
    <title>编组</title>
    <defs>
        <filter x="-3.2%" y="-25.5%" width="106.4%" height="150.9%" filterUnits="objectBoundingBox" id="filter-1">
            <feOffset dx="0" dy="3" in="SourceAlpha" result="shadowOffsetOuter1"></feOffset>
            <feGaussianBlur stdDeviation="2" in="shadowOffsetOuter1" result="shadowBlurOuter1"></feGaussianBlur>
            <feColorMatrix values="0 0 0 0 0   0 0 0 0 0.371167163   0 0 0 0 1  0 0 0 1 0" type="matrix" in="shadowBlurOuter1" result="shadowMatrixOuter1"></feColorMatrix>
            <feMerge>
                <feMergeNode in="shadowMatrixOuter1"></feMergeNode>
                <feMergeNode in="SourceGraphic"></feMergeNode>
            </feMerge>
        </filter>
        <polygon id="path-2" points="0 0 15.70496 0 15.70496 7.41218462 0 7.41218462"></polygon>
    </defs>
    <g id="页面-1" stroke="none" stroke-width="1" fill="none" fill-rule="evenodd">
        <g id="登陆页" transform="translate(-738.000000, -188.000000)">
            <g id="编组-10" transform="translate(713.114258, 192.894409)">
                <g id="编组-8" filter="url(#filter-1)" transform="translate(35.385742, 0.000000)">
                    <g id="编组" transform="translate(0.000000, 6.000000)">
                        <path d="M4,33 C3.97999506,32.2734036 3.84885157,31.4277743 3.61620153,30.4897706 C3.54581378,30.2070676 3.24277599,30 2.8989874,30 L1,30 C1.20671771,30.9293242 1.34823413,31.9349039 1.42973574,33 L4,33 Z" id="Fill-1" fill="#FFFFFF"></path>
                        <path d="M5,30 C4.97546898,29.3042283 4.84776335,28.469556 4.62121212,27.5143763 C4.54761905,27.2156448 4.24747475,27 3.9033189,27 L2,27 C2.3001443,28.2145877 2.46681097,29.2217759 2.501443,30 L5,30 Z" id="Fill-3" fill="#FFFFFF"></path>
                        <path d="M2.02675585,35 C1.57920341,37.2839606 0.899361508,39.3004629 0,41 L1.69109152,41 C1.97689267,41 2.23837033,40.8394043 2.35451505,40.5966995 C3.05868045,39.1151137 3.61021587,37.2344536 4,35 L2.02675585,35 Z" id="Fill-5" fill="#FFFFFF"></path>
                        <path d="M20.7967059,20 L33.803515,20 L34.4158956,16.1674164 L24.9494319,16.1674164 C23.8051624,16.1674164 23.0247152,15.2486682 23.2063044,14.1149074 L24.6963661,4.79216524 C24.8773114,3.65840444 25.9520361,2.73965624 27.0963056,2.73965624 L36.5621253,2.73965624 L37,0.00191421351 L23.9944788,0 C21.539805,-0.000637864817 19.2338798,1.97148066 18.844944,4.40361131 L17.0560973,15.5957508 C16.6671615,18.0285195 18.3420321,20 20.7967059,20" id="Fill-7" fill="#FFFFFF"></path>
                        <path d="M49.794157,19.9910677 L62.8027493,20 L63.4151532,16.1674164 L53.948973,16.1674164 C52.8046599,16.1674164 52.024183,15.2480302 52.2051351,14.1149074 L53.6958975,4.79152722 C53.8768497,3.65776642 54.9509714,2.73901822 56.0952844,2.73901822 L65.5621087,2.73901822 L66,0.00191421356 L52.9939835,0 C50.5385722,-0.000637864767 48.2332032,1.97084264 47.8442526,4.40361131 L46.0559817,15.5868185 C45.6676751,18.0183112 47.3406776,19.9897917 49.794157,19.9910677" id="Fill-9" fill="#FFFFFF"></path>
                        <path d="M82.9577014,4.79701502 L81.4783867,14.1174219 C81.2981072,15.2501834 80.2317733,16.1692764 79.0957568,16.1692764 L72.8920967,16.1692764 C71.7567195,16.1692764 70.981262,15.2501834 71.1615415,14.1174219 L72.6408562,4.79701502 C72.8211357,3.66361578 73.8874696,2.74516057 75.0228468,2.74516057 L81.2265069,2.74516057 C82.3625234,2.74516057 83.1373416,3.66361578 82.9577014,4.79701502 M83.2306778,0 L71.9440312,0 C69.5070617,0 67.2184072,1.97148962 66.8322767,4.40284466 L65.0556927,15.5977932 C64.6695621,18.0291482 66.3323527,20 68.7693222,20 L80.0553295,20 C82.492299,20 84.7815928,18.0291482 85.167084,15.5977932 L86.9443073,4.40284466 C87.3304379,1.97148962 85.6676473,0 83.2306778,0" id="Fill-11" fill="#FFFFFF"></path>
                        <polygon id="Fill-13" fill="#FFFFFF" points="42.8430652 20 46 0 40.157571 0 37 20"></polygon>
                        <path d="M21.6194134,31 L21.6145251,31 L19,31 C19.4706704,31.993921 19.7821229,33.0012158 19.9231844,34 L23,34 C22.849162,33.0352584 22.5914804,32.1422492 22.2367318,31.3550152 C22.1396648,31.1392097 21.8917598,31 21.6194134,31" id="Fill-15" fill="#FFFFFF"></path>
                        <path d="M22.2838642,27.4185354 C22.1718586,27.165509 21.8701435,27 21.539027,27 L19,27 C19.4725236,27.9775749 19.779839,28.9890851 19.9163458,30 L23,30 C22.8389919,28.9765827 22.5960798,28.1061719 22.2838642,27.4185354" id="Fill-17" fill="#FFFFFF"></path>
                        <polygon id="Fill-19" fill="#FFFFFF" points="31.1659772 28.8473886 34.7402886 28.8473886 35 27 24.602361 27 24.3419937 28.8473886 27.9202401 28.8473886 27.9117143 28.9099254 26.601352 38.2859808 22.2420038 38.2859808 22 40 33.7539098 40 33.9959136 38.2859808 29.8470891 38.2859808 29.855615 38.2234439"></polygon>
                        <path d="M20.5987915,35 C20.0477341,37.1681034 19.1734139,39.1871921 18,41 L20.4519637,41 C20.6912387,41 20.9099698,40.8713054 21.023565,40.66133 C21.9280967,39.0153941 22.592145,37.1126847 23,35 L20.5987915,35 Z" id="Fill-21" fill="#FFFFFF"></path>
                        <path d="M13.1557942,29.0946067 L14.7601432,29.0946067 C15.6504906,29.0946067 16.7072395,28.9622827 17.7467515,28.71833 L18,27 C17.0241315,27.29475 16.2106868,27.4446336 14.6381596,27.4446336 L12.3198091,27.4446336 C11.4612835,27.4446336 10.7293821,28.0516932 10.616017,28.8550439 L9.5360647,36.3705429 C9.31463803,37.9521591 8.88968443,38.1315176 8.43821268,38.319656 L8.39246884,38.3409783 L8,41 C10.471493,40.2813116 11.6150888,39.6021322 12.1030231,36.4219674 L12.6585786,32.5488264 L13.6980907,32.5488264 L13.6888093,32.6084035 L12.5054362,40.8375739 L14.9404667,40.8375739 L16.1291435,32.5488264 L17.1461151,32.5488264 L17.3900822,30.8982261 L12.8932644,30.8982261 L13.1557942,29.0946067 Z" id="Fill-23" fill="#FFFFFF"></path>
                        <path d="M9.27186809,33.9913237 L9.51015484,32.1457463 L8.43273678,32.4436336 L8.81942489,29.334352 L9.78584356,29.334352 L10,27.6562535 L9.02513573,27.6562535 L9.23084657,26 L6.95234265,26 L6.74663181,27.6562535 L5.46832898,27.6562535 L5.24994973,29.334352 L6.53730143,29.334352 L6.07279308,33.0976618 L5.0569073,33.3823096 L4.79388699,35.4708307 L5.82183792,35.1325631 L5.38628594,38.6476334 C5.33259602,39.0944644 5.27890609,39.5095207 4.78121858,39.5187883 L4.18942288,39.5187883 L4,40.9982953 L5.35732958,40.9982953 C6.75507742,41.0393376 7.49949729,40.3396334 7.63945305,38.8594644 L8.19445003,34.3474645 L9.27186809,33.9913237 Z" id="Fill-25" fill="#FFFFFF"></path>
                        <g transform="translate(35.047872, 33.587815)">
                            <mask id="mask-3" fill="white">
                                <use xlink:href="#path-2"></use>
                            </mask>
                            <g id="Clip-28"></g>
                            <path d="M10.37376,4.07323077 L10.42624,4.03507692 C11.7696,3.03323077 13.00032,1.67815385 14.09088,0 L10.8672,0 C10.13824,0.977846154 9.3312,1.82092308 8.4672,2.51692308 L8.42816,2.54646154 L8.39296,2.51261538 C7.79136,1.98030769 7.21984,1.13723077 6.70528,0 L3.46752,0 C4.07872,1.67815385 4.92928,3.03692308 5.98912,4.04 L6.03776,4.08615385 L5.9808,4.11938462 C4.36672,5.11323077 1.68832,5.55815385 0.2528,5.61661538 L0,7.41230769 C1.25632,7.39507692 5.41376,6.90461538 7.97888,5.44923077 L8.00512,5.432 L8.03136,5.44923077 C10.63104,6.90892308 14.38272,7.39938462 15.4688,7.41230769 L15.70496,5.75138462 C13.58912,5.50830769 11.1808,4.76553846 10.42624,4.11507692 L10.37376,4.07323077 Z" id="Fill-27" fill="#FFFFFF" mask="url(#mask-3)"></path>
                        </g>
                        <path d="M48.3251315,30 L45,30 C45.8473892,31.9808881 48.1147633,32.9887577 51.748873,33 L52,31.4097808 C50.0370023,31.35638 48.9029865,30.9235526 48.3251315,30" id="Fill-29" fill="#FFFFFF"></path>
                        <polygon id="Fill-31" fill="#FFFFFF" points="45.9541382 26 42.4896852 26 42.3548944 27.0630758 36.2465686 27.0630758 36 29 51.758034 29 52 27.0630758 45.8193474 27.0630758"></polygon>
                        <path d="M44,30 L40.5588386,30 C39.6276687,30.9539067 38.3890692,31.1838111 36.2978651,31.2833052 L36,33 C39.771819,32.9887577 42.4635354,31.9769533 44,30" id="Fill-33" fill="#FFFFFF"></path>
                        <path d="M77.8029994,29.1009932 L74.7960206,29.1009932 L74.8906789,29.0067241 C75.1405769,28.7417157 75.2396525,28.6158038 75.2781469,28.5525182 L75.2913991,28.5439483 C75.3854263,28.4582491 75.4630461,28.3732091 75.5147927,28.2921245 L75.5318312,28.2650962 L77.9146962,28.2650962 L77.8029994,29.1009932 Z M77.5322766,31.2131493 L74.5252979,31.2131493 L74.6332084,30.3772524 L77.639556,30.3772524 L77.5322766,31.2131493 Z M77.2483017,33.3918871 L74.241323,33.3918871 L74.3574372,32.4894085 L77.3644159,32.4894085 L77.2483017,33.3918871 Z M81.2656001,26 L78.2075058,26 L78.0787706,26.9888371 L76.3534652,26.9888371 L76.3623,26.9262108 C76.3705037,26.8721543 76.4007944,26.8227125 76.4525409,26.7686561 C76.5169086,26.5616595 76.590111,26.3915795 76.6721482,26.2656676 L73.785701,26.2656676 C73.3893983,27.4964402 72.6365492,28.3283818 71.595939,28.6652457 L71.3548758,30.5071196 L71.7593823,30.5071196 L71.2173058,34.6681463 L77.080441,34.6681463 L76.9384535,35.7690516 L70.6714429,35.7690516 L70.4777089,37.2384636 L72.9426111,37.2384636 L72.8908645,37.3241628 C72.6283455,37.7599103 72.0263187,38.7665465 70.3054308,38.7803903 L70,40.9367144 C73.4411448,40.9143008 74.7013623,39.1126395 75.6952745,37.2701064 L75.712313,37.2384636 L76.7447196,37.2384636 L76.2588069,41 L79.3169011,41 L79.8034448,37.2384636 L80.6332826,37.2384636 L80.6465348,37.2793355 C81.2656001,39.5885998 82.9953228,40.9189154 85.3908089,40.9367144 L85.6489105,38.9504702 C84.001225,38.7975301 83.5411856,37.6610266 83.4383236,37.3109783 L83.4168677,37.2384636 L85.8685178,37.2384636 L86.0616207,35.7690516 L79.9971788,35.7690516 L80.1385352,34.6681463 L86.0016704,34.6681463 L86.1695312,33.3918871 L80.3063959,33.3918871 L80.4225101,32.4894085 L86.2856453,32.4894085 L86.4535061,31.2131493 L80.5903708,31.2131493 L80.6976502,30.3772524 L86.5607855,30.3772524 L86.7242288,29.1009932 L80.8617246,29.1009932 L80.9734214,28.2650962 L86.8359256,28.2650962 L87,26.9888371 L81.1368648,26.9888371 L81.2656001,26 Z" id="Fill-35" fill="#FFFFFF"></path>
                        <path d="M101.702864,30.4452525 L100.496335,30.4452525 L100.644505,29.3590896 L97.8812256,29.3590896 L97.7330554,30.4452525 L93.0717852,30.4452525 L92.8536991,32.0617483 L95.2276307,32.0655729 C95.2276307,32.0655729 94.9979988,35.1283736 92.2443408,36.4165984 L91.9556974,38.5545035 C96.8235079,36.8698037 97.3347275,32.0617483 97.3347275,32.0617483 L97.5098378,32.0617483 L96.9024038,36.5236849 C96.8889338,36.7627172 96.8190179,36.9450192 96.6836763,37.0584799 C96.5476931,37.1795896 96.3379456,37.231858 96.0666208,37.2101857 L95.5727199,37.2101857 L95.3629724,38.7616648 L97.0813627,38.7616648 C98.6945586,38.8483539 99.5386802,38.1095847 99.6695318,36.5109365 L100.277607,32.0617483 L101.484137,32.0617483 L101.475798,32.1223032 L100.600888,38.5009603 C100.583569,38.8132958 100.487355,39.0485036 100.316734,39.1963849 C100.172413,39.3219566 99.9761353,39.3825114 99.7266191,39.3825114 C99.6868504,39.3825114 99.6477232,39.3825114 99.608596,39.3786869 L91.1962446,39.3786869 L91.2007346,39.3174946 L92.6478001,28.7420675 L101.698374,28.7420675 C101.75931,28.7420675 101.816397,28.7682017 101.855525,28.8115463 C101.895293,28.8548908 101.912612,28.9160831 101.903632,28.9766379 L101.702864,30.4452525 Z M104.750297,27.3429317 C104.557868,27.1255716 104.278205,27 103.985071,27 L89.9153093,27 L88,40.9945454 L100.473885,40.9945454 C102.371875,41.0774099 103.385976,40.2168936 103.591233,38.3613654 L104.990833,28.1422558 C105.02996,27.8560544 104.942726,27.5647537 104.750297,27.3429317 L104.750297,27.3429317 Z" id="Fill-37" fill="#FFFFFF"></path>
                        <path d="M55.5582909,29 L57.5144493,29 C57.6550921,29 57.7871741,28.9404979 57.8770632,28.8348512 C57.9706213,28.7334548 58.0134256,28.5938069 57.9963039,28.4541591 C57.8899045,27.6120219 57.6764943,26.7862781 57.3609651,26 L55,26 C55.3369313,27.2228294 55.5240474,28.2337583 55.5582909,29" id="Fill-39" fill="#FFFFFF"></path>
                        <path d="M57.5988553,38.6234278 C57.3437142,38.335586 57.339925,37.9301045 57.339925,37.4238784 C57.339925,37.3149991 58.0699822,31 58.0699822,31 L54.307914,31 L54.0830866,32.6181716 L55.2583777,32.6181716 L55.2495362,32.6832489 L54.5365305,37.8687817 C54.4569568,38.810525 53.9643576,39.1334084 53.1983027,39.3430324 L53,41 C54.35149,40.8260434 55.3992106,40.4024154 56.1122163,39.7441337 L56.1564239,39.7003316 L56.1955792,39.7528941 C56.6843892,40.415556 57.55149,40.7559602 58.766568,40.7559602 L68.7840142,40.7559602 L69,39.1991114 L59.1480166,39.1991114 C58.4394316,39.1772104 57.9158871,38.9851073 57.5988553,38.6234278" id="Fill-41" fill="#FFFFFF"></path>
                        <path d="M67.0369597,30.6667022 L66.8991439,31.6964981 L65.4038421,31.6964981 L65.5410315,30.6667022 L67.0369597,30.6667022 Z M66.5746502,34.1219551 L65.0806014,34.1219551 L65.2177908,33.0921593 L66.7124661,33.0921593 L66.5746502,34.1219551 Z M62.8749217,31.6964981 L61.3426603,31.6964981 L61.4798497,30.6667022 L63.0121111,30.6667022 L62.8749217,31.6964981 Z M62.5516809,34.1219551 L61.0194195,34.1219551 L61.1566089,33.0921593 L62.6888703,33.0921593 L62.5516809,34.1219551 Z M69.795782,27.545973 L70,26 L59.5792441,26 L59.3743997,27.5235862 L65.7201921,27.5235862 L65.5635832,27.6259261 C65.3637503,27.7589681 65.0899979,27.9143969 64.7504698,28.0922126 C64.5587805,28.1760034 64.3808728,28.2559565 64.2806431,28.3007302 L64.2374191,28.3186397 L64.2111088,28.3007302 C64.0369597,28.1670487 63.7939027,27.99435 63.6285237,27.922712 L60.5489664,27.922712 C61.257465,28.3448643 61.9622051,28.9844891 62.0235957,29.0465327 L62.1150553,29.1443953 L59.1614116,29.1443953 L58,37.8714354 L60.518271,37.8714354 L60.8314888,35.513139 L62.3668824,35.513139 L62.0668198,37.7422312 L64.598246,37.7422312 L64.8939236,35.513139 L66.3904782,35.513139 L66.3165588,36.0593785 C66.2727083,36.3747135 66.0121111,36.6100954 65.6988933,36.6100954 L65.4163708,36.6100954 L65.2290666,38 L66.8646899,38 C67.8600961,38 68.7001462,37.2497202 68.8348298,36.2410319 L69.6786385,29.9611961 C69.7093339,29.7571558 69.6435582,29.5486381 69.5132596,29.3932093 C69.3785759,29.2333031 69.1781165,29.1443953 68.9738985,29.1443953 L66.5420756,29.1443953 L66.8208394,29.0331006 C67.8124869,28.6467672 68.8129046,28.1491392 69.795782,27.545973 L69.795782,27.545973 Z" id="Fill-43" fill="#FFFFFF"></path>
                    </g>
                </g>
            </g>
        </g>
    </g>
</svg>