<?xml version="1.0" encoding="UTF-8"?>
<svg width="21px" height="27px" viewBox="0 0 21 27" version="1.1" xmlns="http://www.w3.org/2000/svg" xmlns:xlink="http://www.w3.org/1999/xlink">
    <title>密码（关）</title>
    <g id="页面-1" stroke="none" stroke-width="1" fill="none" fill-rule="evenodd">
        <g id="登陆页" transform="translate(-792.000000, -518.000000)" fill="#FFFFFF" fill-rule="nonzero">
            <g id="编组-10" transform="translate(713.114258, 192.894409)">
                <g id="编组-7" transform="translate(0.000000, 113.788818)">
                    <g id="编组-5备份" transform="translate(56.885742, 201.711182)">
                        <g id="密码（关）" transform="translate(22.500000, 10.071906)">
                            <path d="M4.49993178,5.61877473 C5.11665984,5.61877473 5.61877473,6.11816073 5.61877473,6.73761768 L5.61877473,11.3985537 C5.61877473,12.0152818 5.11938873,12.5173966 4.49993178,12.5173966 C3.88320371,12.5173966 3.38108883,12.0180106 3.38108883,11.3985537 L3.38108883,6.73761768 C3.38108883,6.12088962 3.88320371,5.61877473 4.49993178,5.61877473 Z M15.5273571,5.50961932 C16.1440851,5.50961932 16.6462,6.00900532 16.6462,6.62846227 L16.6462,11.2430072 C16.6462,11.8597353 16.146814,12.3618502 15.5273571,12.3618502 C14.910629,12.3618502 14.4085141,11.8624642 14.4085141,11.2430072 L14.4085141,6.62846227 C14.4085141,6.01173421 14.910629,5.50961932 15.5273571,5.50961932 Z" id="形状"></path>
                            <path d="M10.01228,2.23495702 C12.4409879,2.23495702 14.4085141,4.20248329 14.4085141,6.63119116 L16.6434711,6.63119116 C16.6434711,2.96902715 13.674444,-4.4408921e-16 10.01228,-4.4408921e-16 C6.35011598,-4.4408921e-16 3.38108883,2.96902715 3.38108883,6.63119116 L5.61604585,6.63119116 C5.61604585,4.20248329 7.586301,2.23495702 10.01228,2.23495702 Z M20,24.3880475 L20,11.9470596 C19.9072179,11.035612 19.1540456,10.3179151 18.2289535,10.2824396 L1.85837086,10.2824396 C0.835038887,10.2824396 0.00272888525,11.1120207 0,12.1353527 L0,24.2597899 C0.10915541,25.0839132 0.7586301,25.7388457 1.58002456,25.8561877 L18.5400464,25.8561877 C19.2768454,25.7088279 19.858098,25.1248465 20,24.3880475 Z" id="形状"></path>
                        </g>
                    </g>
                </g>
            </g>
        </g>
    </g>
</svg>