<?xml version="1.0" encoding="UTF-8"?>
<svg width="15px" height="13px" viewBox="0 0 15 13" version="1.1" xmlns="http://www.w3.org/2000/svg" xmlns:xlink="http://www.w3.org/1999/xlink">
    <title>路径</title>
    <g id="页面-1" stroke="none" stroke-width="1" fill="none" fill-rule="evenodd">
        <g id="GDW--列表" transform="translate(-1242.000000, -275.000000)" fill="#FFFFFF" fill-rule="nonzero">
            <g id="编组-15备份-2" transform="translate(1232.000000, 267.452381)">
                <g id="编组-4" transform="translate(10.805000, 4.000000)">
                    <path d="M13.89,7.46167588 L11.374461,9.97721487 L8.85892204,7.46167588 L10.6952655,7.46167588 C9.52348469,5.43347265 7.10702662,4.48227227 4.86713674,5.16752546 C2.62724686,5.85277865 1.15660342,7.99316638 1.3201688,10.3298146 C1.48373417,12.6664629 3.23822871,14.5810909 5.55174236,14.9476059 C7.865256,15.3141208 10.1256295,14.0355422 11.003419,11.8638691 L12.3429435,11.8638691 C11.4412356,14.7817356 8.57988946,16.6355228 5.54831976,16.2659183 C2.51675006,15.8963138 0.1846224,13.4093459 0.0103913512,10.3603025 C-0.163839698,7.31125905 1.86980748,4.57481834 4.83954057,3.86228224 C7.80927367,3.14974615 10.8631661,4.66551971 12.0913896,7.46167588 L13.89,7.46167588 L13.89,7.46167588 Z" id="路径"></path>
                </g>
            </g>
        </g>
    </g>
</svg>