<?xml version="1.0" encoding="UTF-8"?>
<svg width="21px" height="21px" viewBox="0 0 21 21" version="1.1" xmlns="http://www.w3.org/2000/svg" xmlns:xlink="http://www.w3.org/1999/xlink">
    <title>224用户 (1)</title>
    <g id="页面-1" stroke="none" stroke-width="1" fill="none" fill-rule="evenodd">
        <g id="登陆页" transform="translate(-792.000000, -451.000000)" fill="#FFFFFF" fill-rule="nonzero">
            <g id="编组-10" transform="translate(713.114258, 192.894409)">
                <g id="编组-7" transform="translate(0.000000, 113.788818)">
                    <g id="编组-5" transform="translate(56.885742, 131.711182)">
                        <g id="224用户-(1)" transform="translate(22.500000, 12.995717)">
                            <path d="M9.6868476,0.00856691371 C7.20250522,0.154704701 5.1565762,2.17975689 4.98956159,4.66409927 C4.80167015,7.58685501 7.09812109,10.0294437 9.97912317,10.0294437 C12.7557411,10.0294437 14.9895616,7.77474645 14.9895616,5.01900533 C15.0104384,2.13800324 12.5887265,-0.1584477 9.6868476,0.00856691371 Z M10,11.6578362 C6.65970772,11.6578362 0,13.3279824 0,16.6682746 L0,19.1734938 C0,19.632784 0.375782881,20.0085669 0.835073069,20.0085669 L19.1649269,20.0085669 C19.6242171,20.0085669 20,19.632784 20,19.1734938 L20,16.6473978 C20,13.3279824 13.3402923,11.6578362 10,11.6578362 Z" id="形状"></path>
                        </g>
                    </g>
                </g>
            </g>
        </g>
    </g>
</svg>