<?xml version="1.0" encoding="UTF-8"?>
<svg width="37px" height="36px" viewBox="0 0 37 36" version="1.1" xmlns="http://www.w3.org/2000/svg" xmlns:xlink="http://www.w3.org/1999/xlink">
    <title>警示</title>
    <g id="页面-1" stroke="none" stroke-width="1" fill="none" fill-rule="evenodd">
        <g id="GDW--置顶" transform="translate(-822.000000, -497.000000)" fill="#FAAD14" fill-rule="nonzero">
            <g id="编组-24" transform="translate(697.000000, 379.500000)">
                <g id="警示" transform="translate(125.309645, 117.500000)">
                    <path d="M18.1903548,0 C8.14880373,0 0,8.06510162 0,18.0013501 C0,27.9375985 8.14880373,36 18.1903548,36 C28.2319058,36 36.3807095,27.9375985 36.3807095,18.0013501 C36.3807095,8.06510166 28.2319058,0 18.1903548,0 Z M16.3705093,25.19973 C16.3705093,24.2061052 17.1778294,23.401485 18.1714543,23.401485 L18.2092553,23.401485 C19.1760381,23.4389404 19.9404799,24.2335719 19.9404799,25.20108 C19.9404799,26.1685881 19.1760381,26.9632197 18.2092553,27.000675 L18.1714543,27.000675 C17.1768198,27.000675 16.3705093,26.1943645 16.3705093,25.19973 L16.3705093,25.19973 Z M16.3705093,17.9824496 L16.3705093,10.8191705 C16.344826,10.1527712 16.6857025,9.52570134 17.2589206,9.18486607 C17.8321387,8.8440308 18.5458707,8.8440308 19.1190888,9.18486607 C19.6923069,9.52570134 20.0331834,10.1527712 20.0075002,10.8191705 L20.0075002,17.9824496 C20.0331834,18.6488489 19.6923069,19.2759187 19.1190888,19.616754 C18.5458707,19.9575893 17.8321387,19.9575893 17.2589206,19.616754 C16.6857025,19.2759187 16.344826,18.6488489 16.3705093,17.9824496 L16.3705093,17.9824496 Z" id="形状"></path>
                </g>
            </g>
        </g>
    </g>
</svg>